<?xml version="1.0" encoding="UTF-8"?>
<svg id="Vrstva_1" xmlns="http://www.w3.org/2000/svg" version="1.1" viewBox="0 0 595.28 841.89">
  <!-- Generator: Adobe Illustrator 29.8.5, SVG Export Plug-In . SVG Version: 2.1.1 Build 2)  -->
  <defs>
    <style>
      .st0 {
        fill: #060606;
      }
    </style>
  </defs>
  <polygon class="st0" points="265.23 449.73 257.19 437.63 251.85 437.63 251.85 459.04 257.19 459.04 257.19 446.94 265.23 459.04 270.57 459.04 270.57 437.63 265.23 437.63 265.23 449.73"/>
  <rect class="st0" x="275.5" y="437.63" width="5.34" height="21.42"/>
  <path class="st0" d="M295.52,442.41c2.48,0,4.56,1.43,5.28,3.54h5.68c-.9-5.06-5.34-8.69-10.96-8.69-6.49,0-11.36,4.78-11.36,11.08s4.87,11.08,11.36,11.08c5.62,0,10.06-3.63,10.96-8.69h-5.68c-.71,2.11-2.79,3.54-5.28,3.54-3.35,0-5.9-2.55-5.9-5.93s2.55-5.93,5.9-5.93Z"/>
  <path class="st0" d="M359.59,354.9l-44.58,25.73v51.47l44.58,25.75,44.58-25.75v-51.47l-44.58-25.73ZM385.07,421.07l-25.48,14.72-25.48-14.72v-29.42l25.48-14.71,25.48,14.71v29.42Z"/>
  <polygon class="st0" points="302.73 432.11 302.73 356.75 283.99 356.75 283.99 392.5 231.43 362.12 231.43 362.04 231.3 362.04 222.05 362.04 212.56 362.04 212.56 457.85 231.3 457.85 231.3 383.93 283.99 414.37 283.99 432.11 302.73 432.11"/>
</svg>