<?xml version="1.0" encoding="UTF-8"?>
<svg id="Vrstva_1" xmlns="http://www.w3.org/2000/svg" version="1.1" viewBox="0 0 595.28 841.89">
  <!-- Generator: Adobe Illustrator 29.8.5, SVG Export Plug-In . SVG Version: 2.1.1 Build 2)  -->
  <defs>
    <style>
      .st0 {
        font-family: NeulisSans-Regular, 'Neulis Sans';
        font-size: 31.97px;
      }

      .st0, .st1 {
        fill: #222221;
      }

      .st2 {
        fill: #c5c5c5;
      }

      .st3 {
        fill: #fff;
      }
    </style>
  </defs>
  <path class="st1" d="M186.81,732.49h-39.02c-13.6,0-24.66-11.06-24.66-24.65v-136.53h88.33v136.53c0,13.59-11.06,24.65-24.65,24.65ZM127.13,575.31v132.53c0,11.39,9.27,20.66,20.66,20.66h39.02c11.39,0,20.66-9.27,20.66-20.66v-132.53h-80.34Z"/>
  <g>
    <rect class="st2" x="171.44" y="479.99" width="24.17" height="69.37" rx="1.58" ry="1.58" transform="translate(-232.75 160.71) rotate(-30)"/>
    <path class="st1" d="M192.72,550.45c-.72,0-1.45-.09-2.16-.29-2.14-.57-3.94-1.95-5.05-3.87l-28.37-49.14c-2.29-3.97-.92-9.06,3.04-11.35l9.99-5.77c1.92-1.11,4.16-1.41,6.31-.83,2.14.57,3.94,1.95,5.05,3.87l28.37,49.14c2.29,3.97.93,9.06-3.04,11.35l-9.99,5.77c-1.28.74-2.7,1.12-4.14,1.12ZM174.33,482.9c-.75,0-1.49.2-2.15.58l-9.99,5.77c-2.06,1.19-2.77,3.84-1.58,5.9l28.37,49.14c.58,1,1.51,1.71,2.62,2.01,1.11.3,2.28.14,3.28-.43l9.99-5.77c2.06-1.19,2.77-3.84,1.58-5.9l-28.37-49.14c-.58-1-1.51-1.71-2.62-2.01-.37-.1-.75-.15-1.12-.15Z"/>
  </g>
  <g>
    <polygon class="st1" points="158.34 695.24 156.2 692.01 154.77 692.01 154.77 697.72 156.2 697.72 156.2 694.49 158.34 697.72 159.77 697.72 159.77 692.01 158.34 692.01 158.34 695.24"/>
    <rect class="st1" x="161.09" y="692.01" width="1.42" height="5.72"/>
    <path class="st1" d="M166.43,693.28c.66,0,1.22.38,1.41.94h1.52c-.24-1.35-1.42-2.32-2.92-2.32-1.73,0-3.03,1.28-3.03,2.96,0,1.68,1.3,2.96,3.03,2.96,1.5,0,2.68-.97,2.92-2.32h-1.52c-.19.56-.75.94-1.41.94-.89,0-1.57-.68-1.57-1.58s.68-1.58,1.57-1.58Z"/>
    <path class="st1" d="M183.52,669.93l-11.9,6.87v13.73s11.9,6.87,11.9,6.87l11.9-6.87v-13.73s-11.9-6.87-11.9-6.87ZM190.32,687.59l-6.8,3.93-6.8-3.93v-7.85s6.8-3.93,6.8-3.93l6.8,3.93v7.85Z"/>
    <polygon class="st1" points="168.35 690.54 168.35 670.43 163.35 670.43 163.35 679.97 149.32 671.86 149.32 671.84 149.29 671.84 146.82 671.84 144.29 671.84 144.29 697.4 149.29 697.4 149.29 677.68 163.35 685.8 163.35 690.54 168.35 690.54"/>
  </g>
  <g>
    <polygon class="st1" points="288.51 516.67 247.96 516.67 247.96 512.67 284.52 512.67 284.52 358.05 288.51 358.05 288.51 516.67"/>
    <polygon class="st1" points="255.92 507.9 249.14 514.67 255.92 521.45 250.16 521.45 243.39 514.67 250.16 507.9 255.92 507.9"/>
  </g>
  <text class="st0" transform="translate(309.35 511.88)"><tspan x="0" y="0">Zašroubujte.</tspan></text>
  <text class="st0" transform="translate(279.72 333.45)"><tspan x="0" y="0">Vložte dovnitř.</tspan></text>
  <path class="st1" d="M192.32,470.05h-50.03v-97.68h50.03v97.68ZM146.28,466.06h42.04v-89.68h-42.04v89.68Z"/>
  <rect class="st1" x="136.18" y="391.16" width="62.24" height="4"/>
  <rect class="st1" x="136.18" y="409.86" width="62.24" height="4"/>
  <rect class="st1" x="136.18" y="428.57" width="62.24" height="4"/>
  <rect class="st1" x="136.18" y="447.28" width="62.24" height="4"/>
  <g>
    <rect class="st3" x="125.13" y="188.67" width="84.33" height="185.72"/>
    <path class="st1" d="M211.46,376.39h-88.32v-189.72h88.32v189.72ZM127.13,372.39h80.33v-181.73h-80.33v181.73Z"/>
  </g>
  <polygon class="st1" points="209.58 175 209.46 175 209.46 171.01 209.58 175"/>
  <polygon class="st1" points="125.13 175 125.01 175 125.01 171.01 125.13 175"/>
  <path class="st1" d="M127.13,188.67h-4c0-28.03,8.89-35.01,16.73-41.17,6.09-4.78,10.89-8.56,10.89-22.02v-41.86h16.54v4h-12.55v37.87c0,15.41-6.31,20.37-12.42,25.17-7.47,5.87-15.2,11.94-15.2,38.03Z"/>
  <path class="st1" d="M211.58,188.67h-4c0-26.09-7.75-32.16-15.24-38.03-6.13-4.8-12.46-9.76-12.46-25.17v-37.86h-12.58v-4h16.58v41.86c0,13.47,4.82,17.24,10.93,22.02,7.86,6.16,16.77,13.14,16.77,41.17Z"/>
  <g>
    <path class="st1" d="M984.35,745.38h-39.02c-13.6,0-24.66-11.06-24.66-24.65v-136.53h88.33v136.53c0,13.59-11.06,24.65-24.65,24.65ZM924.67,588.2v132.53c0,11.39,9.27,20.66,20.66,20.66h39.02c11.39,0,20.66-9.27,20.66-20.66v-132.53h-80.34Z"/>
    <g>
      <rect class="st2" x="968.98" y="492.88" width="24.17" height="69.37" rx="1.58" ry="1.58" transform="translate(-132.35 561.21) rotate(-30)"/>
      <path class="st1" d="M990.26,563.34c-.72,0-1.45-.09-2.16-.29-2.14-.57-3.94-1.95-5.05-3.87l-28.37-49.14c-2.29-3.97-.92-9.06,3.04-11.35l9.99-5.77c1.92-1.11,4.16-1.41,6.31-.83,2.14.57,3.94,1.95,5.05,3.87l28.37,49.14c2.29,3.97.93,9.06-3.04,11.35l-9.99,5.77c-1.28.74-2.7,1.12-4.14,1.12ZM971.86,495.8c-.75,0-1.49.2-2.15.58l-9.99,5.77c-2.06,1.19-2.77,3.84-1.58,5.9l28.37,49.14c.58,1,1.51,1.71,2.62,2.01,1.11.3,2.28.14,3.28-.43l9.99-5.77c2.06-1.19,2.77-3.84,1.58-5.9l-28.37-49.14c-.58-1-1.51-1.71-2.62-2.01-.37-.1-.75-.15-1.12-.15Z"/>
    </g>
    <g>
      <polygon class="st1" points="955.88 708.13 953.74 704.9 952.31 704.9 952.31 710.62 953.74 710.62 953.74 707.39 955.88 710.62 957.31 710.62 957.31 704.9 955.88 704.9 955.88 708.13"/>
      <rect class="st1" x="958.62" y="704.9" width="1.42" height="5.72"/>
      <path class="st1" d="M963.96,706.18c.66,0,1.22.38,1.41.94h1.52c-.24-1.35-1.42-2.32-2.92-2.32-1.73,0-3.03,1.28-3.03,2.96,0,1.68,1.3,2.96,3.03,2.96,1.5,0,2.68-.97,2.92-2.32h-1.52c-.19.56-.75.94-1.41.94-.89,0-1.57-.68-1.57-1.58s.68-1.58,1.57-1.58Z"/>
      <path class="st1" d="M981.06,682.83l-11.9,6.87v13.73s11.9,6.87,11.9,6.87l11.9-6.87v-13.73s-11.9-6.87-11.9-6.87ZM987.86,700.49l-6.8,3.93-6.8-3.93v-7.85s6.8-3.93,6.8-3.93l6.8,3.93v7.85Z"/>
      <polygon class="st1" points="965.89 703.43 965.89 683.32 960.89 683.32 960.89 692.86 946.86 684.75 946.86 684.73 946.83 684.73 944.36 684.73 941.82 684.73 941.82 710.3 946.83 710.3 946.83 690.57 960.89 698.7 960.89 703.43 965.89 703.43"/>
    </g>
    <path class="st1" d="M989.85,482.95h-50.03v-97.68h50.03v97.68ZM943.82,478.95h42.04v-89.68h-42.04v89.68Z"/>
    <rect class="st1" x="933.71" y="404.05" width="62.24" height="4"/>
    <rect class="st1" x="933.71" y="422.76" width="62.24" height="4"/>
    <rect class="st1" x="933.71" y="441.47" width="62.24" height="4"/>
    <rect class="st1" x="933.71" y="460.18" width="62.24" height="4"/>
    <g>
      <rect class="st3" x="922.67" y="201.56" width="84.33" height="185.72"/>
      <path class="st1" d="M1008.99,389.29h-88.32v-189.72h88.32v189.72ZM924.67,385.29h80.33v-181.73h-80.33v181.73Z"/>
    </g>
    <polygon class="st1" points="1007.12 187.9 1007 187.9 1007 183.9 1007.12 187.9"/>
    <polygon class="st1" points="922.67 187.9 922.55 187.9 922.55 183.9 922.67 187.9"/>
    <path class="st1" d="M924.67,201.56h-4c0-28.03,8.89-35.01,16.73-41.17,6.09-4.78,10.89-8.56,10.89-22.02v-41.86h16.54v4h-12.55v37.87c0,15.41-6.31,20.37-12.42,25.17-7.47,5.87-15.2,11.94-15.2,38.03Z"/>
    <path class="st1" d="M1009.12,201.56h-4c0-26.09-7.75-32.16-15.24-38.03-6.13-4.8-12.46-9.76-12.46-25.17v-37.86h-12.58v-4h16.58v41.86c0,13.47,4.82,17.24,10.93,22.02,7.86,6.16,16.77,13.14,16.77,41.17Z"/>
  </g>
</svg>