<svg xmlns="http://www.w3.org/2000/svg" viewBox="910 80 110 680" fill="none">
  <style>
    .pen-body { fill: var(--pen-body, #222221); }
    .pen-fill { fill: var(--pen-fill, #fff); }
    .pen-detail { fill: var(--pen-detail, #c5c5c5); }
  </style>
  <!-- Cap / bottom body -->
  <path class="pen-body" d="M984.35,745.38h-39.02c-13.6,0-24.66-11.06-24.66-24.65v-136.53h88.33v136.53c0,13.59-11.06,24.65-24.65,24.65ZM924.67,588.2v132.53c0,11.39,9.27,20.66,20.66,20.66h39.02c11.39,0,20.66-9.27,20.66-20.66v-132.53h-80.34Z"/>
  <!-- Angled detail piece -->
  <rect class="pen-detail" x="968.98" y="492.88" width="24.17" height="69.37" rx="1.58" ry="1.58" transform="translate(-132.35 561.21) rotate(-30)"/>
  <path class="pen-body" d="M990.26,563.34c-.72,0-1.45-.09-2.16-.29-2.14-.57-3.94-1.95-5.05-3.87l-28.37-49.14c-2.29-3.97-.92-9.06,3.04-11.35l9.99-5.77c1.92-1.11,4.16-1.41,6.31-.83,2.14.57,3.94,1.95,5.05,3.87l28.37,49.14c2.29,3.97.93,9.06-3.04,11.35l-9.99,5.77c-1.28.74-2.7,1.12-4.14,1.12ZM971.86,495.8c-.75,0-1.49.2-2.15.58l-9.99,5.77c-2.06,1.19-2.77,3.84-1.58,5.9l28.37,49.14c.58,1,1.51,1.71,2.62,2.01,1.11.3,2.28.14,3.28-.43l9.99-5.77c2.06-1.19,2.77-3.84,1.58-5.9l-28.37-49.14c-.58-1-1.51-1.71-2.62-2.01-.37-.1-.75-.15-1.12-.15Z"/>
  <!-- Core / cartridge area -->
  <path class="pen-body" d="M989.85,482.95h-50.03v-97.68h50.03v97.68ZM943.82,478.95h42.04v-89.68h-42.04v89.68Z"/>
  <rect class="pen-body" x="933.71" y="404.05" width="62.24" height="4"/>
  <rect class="pen-body" x="933.71" y="422.76" width="62.24" height="4"/>
  <rect class="pen-body" x="933.71" y="441.47" width="62.24" height="4"/>
  <rect class="pen-body" x="933.71" y="460.18" width="62.24" height="4"/>
  <!-- Main body tube -->
  <rect class="pen-fill" x="922.67" y="201.56" width="84.33" height="185.72"/>
  <path class="pen-body" d="M1008.99,389.29h-88.32v-189.72h88.32v189.72ZM924.67,385.29h80.33v-181.73h-80.33v181.73Z"/>
  <!-- Mouthpiece / top narrow part -->
  <path class="pen-body" d="M924.67,201.56h-4c0-28.03,8.89-35.01,16.73-41.17,6.09-4.78,10.89-8.56,10.89-22.02v-41.86h16.54v4h-12.55v37.87c0,15.41-6.31,20.37-12.42,25.17-7.47,5.87-15.2,11.94-15.2,38.03Z"/>
  <path class="pen-body" d="M1009.12,201.56h-4c0-26.09-7.75-32.16-15.24-38.03-6.13-4.8-12.46-9.76-12.46-25.17v-37.86h-12.58v-4h16.58v41.86c0,13.47,4.82,17.24,10.93,22.02,7.86,6.16,16.77,13.14,16.77,41.17Z"/>
</svg>
